<svg width="36" height="35" viewBox="0 0 36 35" fill="none" xmlns="http://www.w3.org/2000/svg">
<path d="M22.5 1.09375C22.5 3.13314 22.8867 5.01302 23.6602 6.7334C24.4336 8.45378 25.5469 10.0374 27 11.4844C28.4531 12.9313 29.5664 14.515 30.3398 16.2354C31.1133 17.9557 31.5 19.8356 31.5 21.875C31.5 23.0827 31.3418 24.2448 31.0254 25.3613C30.709 26.4779 30.252 27.5203 29.6543 28.4888C29.0566 29.4572 28.3535 30.3459 27.5449 31.1548C26.7363 31.9637 25.8281 32.6473 24.8203 33.2056C23.8125 33.7638 22.7344 34.2025 21.5859 34.5215C20.4375 34.8405 19.2422 35 18 35C16.7578 35 15.5625 34.8462 14.4141 34.5386C13.2656 34.231 12.1934 33.7866 11.1973 33.2056C10.2012 32.6245 9.28711 31.9409 8.45508 31.1548C7.62305 30.3687 6.91992 29.4857 6.3457 28.5059C5.77148 27.526 5.32031 26.4779 4.99219 25.3613C4.66406 24.2448 4.5 23.0827 4.5 21.875C4.5 20.918 4.60547 19.978 4.81641 19.0552C5.02734 18.1323 5.33203 17.2493 5.73047 16.4062C6.12891 15.5632 6.62109 14.7599 7.20703 13.9966C7.79297 13.2332 8.45508 12.5439 9.19336 11.9287C9.27539 12.3617 9.38672 12.806 9.52734 13.2617C9.66797 13.7174 9.83203 14.1732 10.0195 14.6289C10.207 15.0846 10.4297 15.5176 10.6875 15.9277C10.9453 16.3379 11.2148 16.7196 11.4961 17.0728C11.7305 17.3576 12.0352 17.5 12.4102 17.5C12.7266 17.5 12.9902 17.3918 13.2012 17.1753C13.4121 16.9588 13.5234 16.6968 13.5352 16.3892C13.5352 16.2638 13.5176 16.1499 13.4824 16.0474C13.4473 15.9448 13.3887 15.8423 13.3066 15.7397C12.9785 15.2726 12.6914 14.8112 12.4453 14.3555C12.1992 13.8997 11.9824 13.4326 11.7949 12.9541C11.6074 12.4756 11.4727 11.98 11.3906 11.4673C11.3086 10.9546 11.2617 10.4134 11.25 9.84375C11.25 8.48796 11.5137 7.21191 12.041 6.01562C12.5684 4.81934 13.2949 3.77686 14.2207 2.88818C15.1465 1.99951 16.2188 1.29883 17.4375 0.786133C18.6562 0.273438 19.9688 0.0113932 21.375 0H22.5V1.09375ZM18 32.8125C19.5586 32.8125 21.0176 32.5277 22.377 31.958C23.7363 31.3883 24.9316 30.6079 25.9629 29.6167C26.9941 28.6255 27.7969 27.4691 28.3711 26.1475C28.9453 24.8258 29.2383 23.4017 29.25 21.875C29.25 20.1546 28.9219 18.5539 28.2656 17.0728C27.6094 15.5916 26.6602 14.2472 25.418 13.0396C23.8945 11.547 22.6992 9.90072 21.832 8.10059C20.9648 6.30046 20.4492 4.35221 20.2852 2.25586C19.3125 2.38118 18.416 2.66602 17.5957 3.11035C16.7754 3.55469 16.0547 4.11865 15.4336 4.80225C14.8125 5.48584 14.3379 6.25488 14.0098 7.10938C13.6816 7.96387 13.5117 8.87533 13.5 9.84375C13.5 10.7324 13.6348 11.5356 13.9043 12.2534C14.1738 12.9712 14.5723 13.689 15.0996 14.4067C15.3223 14.703 15.4922 15.0106 15.6094 15.3296C15.7266 15.6486 15.791 16.0018 15.8027 16.3892C15.8027 16.8449 15.7148 17.2721 15.5391 17.6709C15.3633 18.0697 15.1172 18.4172 14.8008 18.7134C14.4844 19.0096 14.127 19.2489 13.7285 19.4312C13.3301 19.6134 12.8906 19.6989 12.4102 19.6875C11.8711 19.6875 11.3965 19.5907 10.9863 19.397C10.5762 19.2033 10.2129 18.9412 9.89648 18.6108C9.58008 18.2804 9.29883 17.9102 9.05273 17.5C8.80664 17.0898 8.57227 16.6797 8.34961 16.2695C7.81055 17.1012 7.41211 17.9956 7.1543 18.9526C6.89648 19.9097 6.76172 20.8838 6.75 21.875C6.75 23.3903 7.04297 24.8088 7.62891 26.1304C8.21484 27.452 9.01758 28.6141 10.0371 29.6167C11.0566 30.6193 12.2461 31.3997 13.6055 31.958C14.9648 32.5163 16.4297 32.8011 18 32.8125Z" fill="#D80E4A"/>
<g clip-path="url(#clip0_1_2746)">
<path d="M22.6392 13.4073C22.6392 14.5476 22.8624 15.5987 23.309 16.5606C23.7555 17.5226 24.3982 18.408 25.2371 19.2171C26.076 20.0261 26.7188 20.9116 27.1653 21.8735C27.6118 22.8355 27.8351 23.8866 27.8351 25.0269C27.8351 25.7022 27.7437 26.3519 27.5611 26.9762C27.3784 27.6005 27.1145 28.1834 26.7695 28.7249C26.4245 29.2664 26.0185 29.7633 25.5517 30.2156C25.0849 30.6679 24.5606 31.0501 23.9788 31.3623C23.3969 31.6744 22.7745 31.9197 22.1115 32.0981C21.4485 32.2764 20.7584 32.3656 20.0413 32.3656C19.3241 32.3656 18.634 32.2796 17.971 32.1076C17.308 31.9356 16.689 31.6872 16.1139 31.3623C15.5388 31.0374 15.0111 30.6552 14.5308 30.2156C14.0504 29.776 13.6445 29.2823 13.313 28.7345C12.9815 28.1866 12.721 27.6005 12.5316 26.9762C12.3422 26.3519 12.2474 25.7022 12.2474 25.0269C12.2474 24.4918 12.3083 23.9662 12.4301 23.4502C12.5519 22.9342 12.7278 22.4405 12.9578 21.9691C13.1878 21.4977 13.472 21.0486 13.8103 20.6218C14.1485 20.1949 14.5308 19.8095 14.957 19.4655C15.0044 19.7076 15.0686 19.9561 15.1498 20.2109C15.231 20.4657 15.3257 20.7205 15.434 20.9753C15.5422 21.2301 15.6708 21.4722 15.8196 21.7015C15.9684 21.9309 16.124 22.1443 16.2864 22.3418C16.4217 22.501 16.5976 22.5807 16.8141 22.5807C16.9968 22.5807 17.149 22.5201 17.2708 22.3991C17.3926 22.2781 17.4568 22.1315 17.4636 21.9595C17.4636 21.8895 17.4535 21.8258 17.4332 21.7684C17.4129 21.7111 17.379 21.6538 17.3317 21.5964C17.1423 21.3352 16.9765 21.0772 16.8344 20.8224C16.6923 20.5676 16.5672 20.3064 16.4589 20.0389C16.3507 19.7713 16.2729 19.4942 16.2255 19.2075C16.1782 18.9209 16.1511 18.6183 16.1443 18.2997C16.1443 17.5417 16.2966 16.8282 16.601 16.1593C16.9055 15.4904 17.3249 14.9075 17.8594 14.4106C18.3939 13.9137 19.0129 13.5219 19.7165 13.2353C20.4201 12.9486 21.1778 12.8021 21.9897 12.7957H22.6392V13.4073ZM20.0413 31.1425C20.9411 31.1425 21.7834 30.9832 22.5682 30.6647C23.3529 30.3462 24.043 29.9098 24.6384 29.3556C25.2337 28.8014 25.6972 28.1548 26.0287 27.4158C26.3602 26.6768 26.5293 25.8805 26.5361 25.0269C26.5361 24.065 26.3467 23.1699 25.9678 22.3418C25.5889 21.5136 25.0409 20.7619 24.3238 20.0866C23.4443 19.2521 22.7542 18.3316 22.2536 17.3251C21.7529 16.3186 21.4552 15.2292 21.3605 14.0571C20.799 14.1271 20.2814 14.2864 19.8078 14.5348C19.3343 14.7833 18.9182 15.0986 18.5596 15.4808C18.201 15.8631 17.927 16.2931 17.7376 16.7708C17.5482 17.2486 17.4501 17.7583 17.4433 18.2997C17.4433 18.7966 17.5211 19.2458 17.6767 19.6471C17.8323 20.0484 18.0624 20.4498 18.3668 20.8511C18.4953 21.0167 18.5934 21.1887 18.6611 21.3671C18.7288 21.5455 18.766 21.743 18.7727 21.9595C18.7727 22.2144 18.722 22.4533 18.6205 22.6762C18.519 22.8992 18.3769 23.0935 18.1943 23.2591C18.0116 23.4247 17.8053 23.5585 17.5752 23.6604C17.3452 23.7624 17.0915 23.8102 16.8141 23.8038C16.5029 23.8038 16.2289 23.7496 15.9921 23.6413C15.7553 23.533 15.5456 23.3865 15.3629 23.2018C15.1803 23.017 15.0179 22.81 14.8758 22.5807C14.7337 22.3513 14.5984 22.122 14.4699 21.8927C14.1587 22.3577 13.9287 22.8578 13.7798 23.3929C13.631 23.928 13.5532 24.4727 13.5464 25.0269C13.5464 25.8742 13.7155 26.6673 14.0538 27.4062C14.3921 28.1452 14.8555 28.795 15.4441 29.3556C16.0327 29.9162 16.7194 30.3526 17.5042 30.6647C18.289 30.9769 19.1347 31.1361 20.0413 31.1425Z" fill="#D80E4A"/>
</g>
<defs>
<clipPath id="clip0_1_2746">
<rect width="20.7835" height="19.5699" fill="white" transform="translate(9.64948 12.7957)"/>
</clipPath>
</defs>
</svg>
