<svg width="35" height="35" viewBox="0 0 35 35" fill="none" xmlns="http://www.w3.org/2000/svg">
<g clip-path="url(#clip0_6_314)">
<path d="M21.8887 16.666L18.4912 23.4609C18.081 24.2881 16.8916 24.2607 16.5156 23.4199L12.626 14.7861L10.5752 19.6875H4.14256L16.6181 32.4365C17.1035 32.9355 17.8896 32.9355 18.375 32.4365L30.8574 19.6875H23.3994L21.8887 16.666ZM32.3818 5.05176L32.2178 4.88086C28.6972 1.28516 22.9346 1.28516 19.4072 4.88086L17.5 6.83594L15.5928 4.8877C12.0722 1.28516 6.30271 1.28516 2.78221 4.8877L2.61814 5.05176C-0.710959 8.45605 -0.854514 13.877 2.11912 17.5H9.11912L11.5732 11.6074C11.9424 10.7256 13.1865 10.7051 13.583 11.5801L17.5615 20.4189L20.9111 13.7266C21.3144 12.9199 22.4629 12.9199 22.8662 13.7266L24.7529 17.5H32.8808C35.8545 13.877 35.7109 8.45605 32.3818 5.05176Z" fill="#FF914D"/>
</g>
<defs>
<clipPath id="clip0_6_314">
<rect width="35" height="35" fill="white"/>
</clipPath>
</defs>
</svg>
