<svg width="35" height="35" viewBox="0 0 35 35" fill="none" xmlns="http://www.w3.org/2000/svg">
<path d="M14.5834 4.37504C14.1702 4.37504 13.824 4.23504 13.545 3.95504C13.265 3.67601 13.125 3.3299 13.125 2.91671C13.125 2.50351 13.265 2.15692 13.545 1.87692C13.824 1.59789 14.1702 1.45837 14.5834 1.45837H20.4167C20.8299 1.45837 21.1765 1.59789 21.4565 1.87692C21.7355 2.15692 21.875 2.50351 21.875 2.91671C21.875 3.3299 21.7355 3.67601 21.4565 3.95504C21.1765 4.23504 20.8299 4.37504 20.4167 4.37504H14.5834ZM14.5834 21.5105L12.9792 18.3021C12.8577 18.0348 12.6754 17.834 12.4323 17.6998C12.1893 17.5666 11.934 17.5 11.6667 17.5H4.44794C4.81252 14.2188 6.2344 11.4538 8.71356 9.20504C11.1927 6.95726 14.1215 5.83337 17.5 5.83337C19.007 5.83337 20.4531 6.07643 21.8386 6.56254C23.224 7.04865 24.5243 7.75351 25.7396 8.67712L26.7604 7.65629C27.0278 7.38893 27.3681 7.24893 27.7813 7.23629C28.1945 7.22462 28.5347 7.36462 28.8021 7.65629C29.0695 7.92365 29.2031 8.26393 29.2031 8.67712C29.2031 9.09032 29.0695 9.4306 28.8021 9.69796L27.7813 10.7188C28.559 11.7396 29.1788 12.8149 29.6406 13.9446C30.1025 15.0753 30.4063 16.2605 30.5521 17.5H24.2448L21.7292 12.4688C21.4618 11.9098 21.0243 11.6302 20.4167 11.6302C19.809 11.6302 19.3715 11.9098 19.1042 12.4688L14.5834 21.5105ZM17.5 32.0834C14.1215 32.0834 11.1927 30.9595 8.71356 28.7117C6.2344 26.463 4.81252 23.698 4.44794 20.4167H10.7552L13.2709 25.448C13.5382 26.007 13.9757 26.2865 14.5834 26.2865C15.191 26.2865 15.6285 26.007 15.8959 25.448L20.4167 16.4063L22.0209 19.6146C22.1424 19.882 22.3247 20.0828 22.5677 20.2169C22.8108 20.3501 23.066 20.4167 23.3334 20.4167H30.5521C30.1875 23.698 28.772 26.463 26.3054 28.7117C23.8379 30.9595 20.9028 32.0834 17.5 32.0834Z" fill="#FF914D"/>
</svg>
