<svg width="33" height="29" viewBox="0 0 33 29" fill="none" xmlns="http://www.w3.org/2000/svg">
<path fill-rule="evenodd" clip-rule="evenodd" d="M8.59375 6.64578C8.59365 5.83817 8.8769 5.05016 9.4049 4.38914C9.9329 3.72812 10.68 3.22623 11.5443 2.95186C12.4087 2.67749 13.3483 2.64397 14.2351 2.85589C15.1219 3.0678 15.9128 3.51483 16.5 4.13608C17.2477 3.33676 18.3242 2.82906 19.4954 2.72333C20.6667 2.61759 21.8382 2.92237 22.7552 3.57141C23.6722 4.22045 24.2606 5.16131 24.3927 6.18951C24.5247 7.21771 24.1896 8.25015 23.4603 9.06245H24.75C25.2014 9.06245 25.6484 9.14059 26.0655 9.2924C26.4825 9.44421 26.8615 9.66672 27.1807 9.94723C27.4999 10.2277 27.7531 10.5608 27.9258 10.9273C28.0986 11.2938 28.1875 11.6866 28.1875 12.0833V13.5937C28.1875 13.8341 28.0789 14.0646 27.8855 14.2345C27.6921 14.4045 27.4298 14.4999 27.1562 14.4999H17.9438C17.8896 14.4999 17.8359 14.4906 17.7859 14.4724C17.7358 14.4541 17.6904 14.4274 17.6521 14.3938C17.6138 14.3601 17.5834 14.3202 17.5626 14.2762C17.5419 14.2322 17.5312 14.1851 17.5312 14.1374V9.95662C17.1427 9.73772 16.7949 9.4675 16.5 9.15549C16.205 9.46707 15.8572 9.73688 15.4688 9.95541V14.1374C15.4688 14.2336 15.4253 14.3258 15.3479 14.3938C15.2706 14.4618 15.1657 14.4999 15.0562 14.4999H5.84375C5.57025 14.4999 5.30794 14.4045 5.11455 14.2345C4.92115 14.0646 4.8125 13.8341 4.8125 13.5937V12.0833C4.8125 11.6866 4.90141 11.2938 5.07416 10.9273C5.24691 10.5608 5.50012 10.2277 5.81932 9.94723C6.13852 9.66672 6.51747 9.44421 6.93453 9.2924C7.35158 9.14059 7.79858 9.06245 8.25 9.06245H9.53975C8.9253 8.37275 8.59216 7.52172 8.59375 6.64578ZM15.4688 6.64578C15.4688 6.08496 15.2152 5.54711 14.764 5.15055C14.3127 4.75399 13.7007 4.5312 13.0625 4.5312C12.4243 4.5312 11.8123 4.75399 11.361 5.15055C10.9098 5.54711 10.6562 6.08496 10.6562 6.64578C10.6562 7.20661 10.9098 7.74446 11.361 8.14102C11.8123 8.53758 12.4243 8.76037 13.0625 8.76037C13.7007 8.76037 14.3127 8.53758 14.764 8.14102C15.2152 7.74446 15.4688 7.20661 15.4688 6.64578ZM17.5312 6.64578C17.5312 6.92347 17.5935 7.19845 17.7144 7.455C17.8353 7.71155 18.0126 7.94466 18.236 8.14102C18.4595 8.33738 18.7247 8.49314 19.0167 8.5994C19.3086 8.70567 19.6215 8.76037 19.9375 8.76037C20.2535 8.76037 20.5664 8.70567 20.8583 8.5994C21.1503 8.49314 21.4155 8.33738 21.639 8.14102C21.8624 7.94466 22.0397 7.71155 22.1606 7.455C22.2815 7.19845 22.3438 6.92347 22.3438 6.64578C22.3438 6.08496 22.0902 5.54711 21.639 5.15055C21.1877 4.75399 20.5757 4.5312 19.9375 4.5312C19.2993 4.5312 18.6873 4.75399 18.236 5.15055C17.7848 5.54711 17.5312 6.08496 17.5312 6.64578Z" fill="#2998AB"/>
<path d="M15.4687 16.4937C15.4687 16.3976 15.4253 16.3054 15.3479 16.2374C15.2705 16.1694 15.1656 16.1312 15.0562 16.1312H7.76735C7.49742 16.1315 7.23628 16.2155 7.03 16.3685C6.82371 16.5215 6.68554 16.7336 6.63985 16.9674C6.33449 18.5333 6.33449 20.1334 6.63985 21.6992L6.94785 23.2809C7.049 23.7992 7.33903 24.2746 7.77425 24.6355C8.20947 24.9964 8.76632 25.2232 9.36097 25.2819L10.8253 25.4257C12.2282 25.5636 13.637 25.6502 15.048 25.6855C15.1028 25.6868 15.1574 25.6784 15.2085 25.6608C15.2596 25.6432 15.3061 25.6168 15.3453 25.5831C15.3846 25.5494 15.4157 25.5091 15.4369 25.4647C15.4581 25.4202 15.4689 25.3724 15.4687 25.3242V16.4937ZM17.952 25.6855C17.8971 25.6868 17.8425 25.6784 17.7915 25.6608C17.7404 25.6432 17.6938 25.6168 17.6546 25.5831C17.6154 25.5494 17.5842 25.5091 17.563 25.4647C17.5418 25.4202 17.531 25.3724 17.5312 25.3242V16.4937C17.5312 16.3976 17.5747 16.3054 17.652 16.2374C17.7294 16.1694 17.8343 16.1312 17.9437 16.1312H25.2326C25.7908 16.1312 26.2666 16.4841 26.3601 16.9674C26.6667 18.5334 26.6667 20.1332 26.3601 21.6992L26.0535 23.2809C25.9522 23.7994 25.662 24.2749 25.2265 24.6358C24.791 24.9967 24.2339 25.2235 23.639 25.2819L22.1746 25.4257C20.7717 25.5635 19.363 25.6502 17.952 25.6855Z" fill="#2998AB"/>
</svg>
