<svg width="24" height="21" viewBox="0 0 24 21" fill="none" xmlns="http://www.w3.org/2000/svg">
<path d="M15 0.65625C15 1.87988 15.2578 3.00781 15.7734 4.04004C16.2891 5.07227 17.0312 6.02246 18 6.89062C18.9688 7.75879 19.7109 8.70898 20.2266 9.74121C20.7422 10.7734 21 11.9014 21 13.125C21 13.8496 20.8945 14.5469 20.6836 15.2168C20.4727 15.8867 20.168 16.5122 19.7695 17.0933C19.3711 17.6743 18.9023 18.2075 18.3633 18.6929C17.8242 19.1782 17.2188 19.5884 16.5469 19.9233C15.875 20.2583 15.1562 20.5215 14.3906 20.7129C13.625 20.9043 12.8281 21 12 21C11.1719 21 10.375 20.9077 9.60938 20.7231C8.84375 20.5386 8.12891 20.272 7.46484 19.9233C6.80078 19.5747 6.19141 19.1646 5.63672 18.6929C5.08203 18.2212 4.61328 17.6914 4.23047 17.1035C3.84766 16.5156 3.54688 15.8867 3.32812 15.2168C3.10938 14.5469 3 13.8496 3 13.125C3 12.5508 3.07031 11.9868 3.21094 11.4331C3.35156 10.8794 3.55469 10.3496 3.82031 9.84375C4.08594 9.33789 4.41406 8.85596 4.80469 8.39795C5.19531 7.93994 5.63672 7.52637 6.12891 7.15723C6.18359 7.41699 6.25781 7.68359 6.35156 7.95703C6.44531 8.23047 6.55469 8.50391 6.67969 8.77734C6.80469 9.05078 6.95312 9.31055 7.125 9.55664C7.29688 9.80273 7.47656 10.0317 7.66406 10.2437C7.82031 10.4146 8.02344 10.5 8.27344 10.5C8.48438 10.5 8.66016 10.4351 8.80078 10.3052C8.94141 10.1753 9.01562 10.0181 9.02344 9.8335C9.02344 9.7583 9.01172 9.68994 8.98828 9.62842C8.96484 9.56689 8.92578 9.50537 8.87109 9.44385C8.65234 9.16357 8.46094 8.88672 8.29688 8.61328C8.13281 8.33984 7.98828 8.05957 7.86328 7.77246C7.73828 7.48535 7.64844 7.18799 7.59375 6.88037C7.53906 6.57275 7.50781 6.24805 7.5 5.90625C7.5 5.09277 7.67578 4.32715 8.02734 3.60938C8.37891 2.8916 8.86328 2.26611 9.48047 1.73291C10.0977 1.19971 10.8125 0.779297 11.625 0.47168C12.4375 0.164062 13.3125 0.00683594 14.25 0H15V0.65625ZM12 19.6875C13.0391 19.6875 14.0117 19.5166 14.918 19.1748C15.8242 18.833 16.6211 18.3647 17.3086 17.77C17.9961 17.1753 18.5312 16.4814 18.9141 15.6885C19.2969 14.8955 19.4922 14.041 19.5 13.125C19.5 12.0928 19.2812 11.1323 18.8438 10.2437C18.4062 9.35498 17.7734 8.54834 16.9453 7.82373C15.9297 6.92822 15.1328 5.94043 14.5547 4.86035C13.9766 3.78027 13.6328 2.61133 13.5234 1.35352C12.875 1.42871 12.2773 1.59961 11.7305 1.86621C11.1836 2.13281 10.7031 2.47119 10.2891 2.88135C9.875 3.2915 9.55859 3.75293 9.33984 4.26562C9.12109 4.77832 9.00781 5.3252 9 5.90625C9 6.43945 9.08984 6.92139 9.26953 7.35205C9.44922 7.78271 9.71484 8.21338 10.0664 8.64404C10.2148 8.82178 10.3281 9.00635 10.4062 9.19775C10.4844 9.38916 10.5273 9.60107 10.5352 9.8335C10.5352 10.1069 10.4766 10.3633 10.3594 10.6025C10.2422 10.8418 10.0781 11.0503 9.86719 11.228C9.65625 11.4058 9.41797 11.5493 9.15234 11.6587C8.88672 11.7681 8.59375 11.8193 8.27344 11.8125C7.91406 11.8125 7.59766 11.7544 7.32422 11.6382C7.05078 11.522 6.80859 11.3647 6.59766 11.1665C6.38672 10.9683 6.19922 10.7461 6.03516 10.5C5.87109 10.2539 5.71484 10.0078 5.56641 9.76172C5.20703 10.2607 4.94141 10.7974 4.76953 11.3716C4.59766 11.9458 4.50781 12.5303 4.5 13.125C4.5 14.0342 4.69531 14.8853 5.08594 15.6782C5.47656 16.4712 6.01172 17.1685 6.69141 17.77C7.37109 18.3716 8.16406 18.8398 9.07031 19.1748C9.97656 19.5098 10.9531 19.6807 12 19.6875Z" fill="#F8442C"/>
<g clip-path="url(#clip0_1_1733)">
<path d="M15.0929 8.0443C15.0929 8.72849 15.2417 9.35916 15.5394 9.93632C15.8371 10.5135 16.2656 11.0448 16.8248 11.5302C17.3841 12.0156 17.8126 12.5469 18.1103 13.1241C18.408 13.7012 18.5568 14.3319 18.5568 15.0161C18.5568 15.4212 18.4959 15.8111 18.3741 16.1857C18.2523 16.5603 18.0764 16.91 17.8464 17.2349C17.6164 17.5598 17.3458 17.8579 17.0346 18.1293C16.7234 18.4007 16.3738 18.63 15.9859 18.8173C15.598 19.0046 15.1831 19.1517 14.7411 19.2588C14.2991 19.3658 13.839 19.4193 13.3609 19.4193C12.8828 19.4193 12.4228 19.3677 11.9808 19.2645C11.5388 19.1613 11.1261 19.0122 10.7427 18.8173C10.3593 18.6224 10.0075 18.393 9.68727 18.1293C9.36704 17.8656 9.09642 17.5693 8.87541 17.2406C8.65441 16.9119 8.48076 16.5603 8.35447 16.1857C8.22818 15.8111 8.16504 15.4212 8.16504 15.0161C8.16504 14.695 8.20563 14.3797 8.28682 14.0701C8.368 13.7605 8.48527 13.4642 8.63862 13.1814C8.79197 12.8986 8.98141 12.6291 9.20692 12.373C9.43244 12.1169 9.68727 11.8857 9.97142 11.6793C10.003 11.8245 10.0458 11.9736 10.1 12.1265C10.1541 12.2794 10.2172 12.4322 10.2894 12.5851C10.3616 12.738 10.4473 12.8833 10.5465 13.0209C10.6457 13.1585 10.7494 13.2865 10.8577 13.405C10.9479 13.5006 11.0652 13.5483 11.2095 13.5483C11.3313 13.5483 11.4328 13.512 11.5139 13.4394C11.5951 13.3668 11.638 13.2789 11.6425 13.1757C11.6425 13.1336 11.6357 13.0954 11.6222 13.061C11.6087 13.0266 11.5861 12.9922 11.5545 12.9578C11.4282 12.8011 11.3177 12.6463 11.223 12.4934C11.1283 12.3405 11.0449 12.1838 10.9727 12.0233C10.9005 11.8627 10.8487 11.6965 10.8171 11.5245C10.7855 11.3525 10.7675 11.1709 10.763 10.9798C10.763 10.5249 10.8645 10.0968 11.0674 9.69551C11.2704 9.29418 11.55 8.94444 11.9063 8.64631C12.2627 8.34817 12.6753 8.1131 13.1444 7.9411C13.6135 7.7691 14.1186 7.68119 14.6599 7.67737H15.0929V8.0443ZM13.3609 18.6854C13.9608 18.6854 14.5223 18.5899 15.0455 18.3988C15.5687 18.2077 16.0288 17.9458 16.4257 17.6133C16.8226 17.2808 17.1315 16.8928 17.3525 16.4494C17.5735 16.006 17.6863 15.5283 17.6908 15.0161C17.6908 14.4389 17.5645 13.9019 17.3119 13.405C17.0594 12.9081 16.694 12.4571 16.2159 12.0519C15.6296 11.5512 15.1696 10.9989 14.8358 10.395C14.502 9.79107 14.3036 9.13747 14.2404 8.43417C13.8661 8.47622 13.521 8.57177 13.2053 8.72084C12.8896 8.86991 12.6122 9.05911 12.3732 9.28844C12.1341 9.51778 11.9514 9.77578 11.8252 10.0624C11.6989 10.3491 11.6335 10.6549 11.629 10.9798C11.629 11.2779 11.6808 11.5474 11.7846 11.7882C11.8883 12.029 12.0417 12.2698 12.2446 12.5106C12.3303 12.61 12.3957 12.7132 12.4408 12.8202C12.4859 12.9272 12.5107 13.0457 12.5152 13.1757C12.5152 13.3286 12.4814 13.4719 12.4138 13.6057C12.3461 13.7394 12.2514 13.856 12.1296 13.9554C12.0078 14.0548 11.8703 14.1351 11.7169 14.1962C11.5636 14.2574 11.3944 14.286 11.2095 14.2822C11.002 14.2822 10.8194 14.2497 10.6615 14.1847C10.5036 14.1198 10.3638 14.0319 10.242 13.921C10.1203 13.8102 10.012 13.6859 9.91729 13.5483C9.82258 13.4107 9.73237 13.2731 9.64668 13.1355C9.4392 13.4146 9.28585 13.7146 9.18662 14.0357C9.0874 14.3567 9.03553 14.6835 9.03102 15.0161C9.03102 15.5244 9.14378 16.0003 9.36929 16.4437C9.59481 16.8871 9.90376 17.2769 10.2962 17.6133C10.6886 17.9497 11.1464 18.2115 11.6695 18.3988C12.1927 18.5861 12.7565 18.6816 13.3609 18.6854Z" fill="#F8442C"/>
</g>
<defs>
<clipPath id="clip0_1_1733">
<rect width="13.8557" height="11.7419" fill="white" transform="translate(6.43311 7.67737)"/>
</clipPath>
</defs>
</svg>
