<svg width="22" height="18" viewBox="0 0 22 18" fill="none" xmlns="http://www.w3.org/2000/svg">
<path d="M4.94999 7.12502H2.01666C2.07777 6.95002 2.15813 6.78427 2.25774 6.62777C2.35674 6.47177 2.47499 6.31877 2.61249 6.16877L6.14166 2.30627C6.40138 2.01877 6.7491 1.82802 7.18483 1.73402C7.61994 1.64052 8.0361 1.68127 8.43333 1.85627L9.07499 2.11877C9.39583 2.25627 9.64424 2.44377 9.82024 2.68127C9.99563 2.91877 10.0833 3.18127 10.0833 3.46877V5.04377L11.7792 4.68752C12.2375 4.58752 12.6805 4.63452 13.1083 4.82852C13.5361 5.02202 13.8264 5.30002 13.9792 5.66252L15.4687 9.33752L19.3646 12.525C19.6701 12.775 19.88 13.0438 19.9943 13.3313C20.1092 13.6188 20.1667 13.925 20.1667 14.25C20.1667 14.7125 20.0139 15.125 19.7083 15.4875C19.4028 15.85 19.0056 16.1188 18.5167 16.2938L8.11249 8.15627C7.66944 7.81877 7.18055 7.56252 6.64583 7.38752C6.1111 7.21252 5.54583 7.12502 4.94999 7.12502ZM12.9708 16.5C12.5125 16.5 12.0771 16.4313 11.6646 16.2938C11.2521 16.1563 10.8701 15.9625 10.5187 15.7125L3.07083 10.1813C2.78055 9.96877 2.54374 9.72802 2.36041 9.45902C2.17708 9.19052 2.04721 8.91252 1.97083 8.62502H4.94999C5.30138 8.62502 5.64146 8.67502 5.97024 8.77502C6.29841 8.87502 6.59235 9.03127 6.85208 9.24377L16.1104 16.5H12.9708Z" fill="#FFDE59"/>
</svg>
