<svg width="25" height="25" viewBox="0 0 25 25" fill="none" xmlns="http://www.w3.org/2000/svg">
<path d="M11.1583 6.98671L15.9326 11.7784C16.0363 11.8826 16.1096 11.9953 16.1524 12.1167C16.1958 12.2381 16.2174 12.3681 16.2172 12.5067C16.2169 12.6454 16.1948 12.7753 16.151 12.8965C16.1078 13.0178 16.0341 13.1303 15.9299 13.2341L11.1382 18.0083C10.9473 18.1986 10.7045 18.2935 10.4099 18.293C10.1153 18.2924 9.87282 18.1967 9.68254 18.0057C9.49226 17.8147 9.39739 17.5719 9.39793 17.2773C9.39846 16.9827 9.49422 16.7403 9.68519 16.55L13.7477 12.5023L9.69994 8.43975C9.50966 8.24878 9.41479 8.00599 9.41533 7.71139C9.41586 7.41679 9.51162 7.17435 9.70259 6.98407C9.89356 6.79379 10.1363 6.69891 10.431 6.69945C10.7256 6.69999 10.968 6.79574 11.1583 6.98671Z" fill="#E4A951"/>
</svg>
