<svg width="36" height="35" viewBox="0 0 36 35" fill="none" xmlns="http://www.w3.org/2000/svg">
<path d="M8.10001 13.8542H3.30001C3.40001 13.5139 3.53151 13.1916 3.69451 12.8873C3.85651 12.584 4.05001 12.2865 4.27501 11.9948L10.05 4.48441C10.475 3.92538 11.044 3.55448 11.757 3.3717C12.469 3.18989 13.15 3.26913 13.8 3.60941L14.85 4.11982C15.375 4.38719 15.7815 4.75177 16.0695 5.21357C16.3565 5.67538 16.5 6.1858 16.5 6.74482V9.80732L19.275 9.11462C20.025 8.92017 20.75 9.01156 21.45 9.38878C22.15 9.76503 22.625 10.3056 22.875 11.0104L25.3125 18.1563L31.6875 24.3542C32.1875 24.8403 32.531 25.3629 32.718 25.9219C32.906 26.4809 33 27.0764 33 27.7084C33 28.6077 32.75 29.4098 32.25 30.1146C31.75 30.8195 31.1 31.342 30.3 31.6823L13.275 15.8594C12.55 15.2032 11.75 14.7049 10.875 14.3646C10 14.0243 9.07501 13.8542 8.10001 13.8542ZM21.225 32.0834C20.475 32.0834 19.7625 31.9497 19.0875 31.6823C18.4125 31.415 17.7875 31.0382 17.2125 30.5521L5.02501 19.7969C4.55001 19.3837 4.16251 18.9156 3.86251 18.3925C3.56251 17.8705 3.35001 17.3299 3.22501 16.7709H8.10001C8.67501 16.7709 9.23151 16.8681 9.76951 17.0625C10.3065 17.257 10.7875 17.5608 11.2125 17.974L26.3625 32.0834H21.225Z" fill="#FF914D"/>
</svg>
