<svg width="35" height="26" viewBox="0 0 35 26" fill="none" xmlns="http://www.w3.org/2000/svg">
<path d="M28.242 6.27586C28.079 6.27586 27.9228 6.20502 27.8076 6.07892C27.6923 5.95282 27.6276 5.78179 27.6276 5.60345C27.6276 5.42512 27.6923 5.25408 27.8076 5.12798C27.9228 5.00188 28.079 4.93104 28.242 4.93104C28.4049 4.93104 28.5612 5.00188 28.6764 5.12798C28.7916 5.25408 28.8563 5.42512 28.8563 5.60345C28.8563 5.78179 28.7916 5.95282 28.6764 6.07892C28.5612 6.20502 28.4049 6.27586 28.242 6.27586ZM34.7583 8.32897L31.0721 4.29448C30.9247 4.13311 30.7199 4.03448 30.4946 4.03448H27.6276C27.173 4.03448 26.8085 4.43345 26.8085 4.93104V8.06897C26.8085 8.31552 26.8986 8.53966 27.0501 8.70104L30.7322 12.7355C30.8837 12.8969 31.0885 13 31.3138 13C31.5391 13 31.7438 12.8969 31.8913 12.7355L34.7583 9.59759C34.9099 9.43621 35 9.21207 35 8.96552C35 8.71448 34.9058 8.49035 34.7583 8.32897Z" fill="black"/>
<path fill-rule="evenodd" clip-rule="evenodd" d="M20.4788 14.7931C22.2516 16.3102 23.494 18.3656 23.494 21.1061V26H28.6702V21.1061C28.6702 17.55 24.0504 15.4456 20.4788 14.7931Z" fill="black"/>
<path d="M10.4255 13C13.3045 13 15.6383 10.0899 15.6383 6.5C15.6383 2.91015 13.3045 0 10.4255 0C7.5466 0 5.21277 2.91015 5.21277 6.5C5.21277 10.0899 7.5466 13 10.4255 13Z" fill="black"/>
<path fill-rule="evenodd" clip-rule="evenodd" d="M18.2447 13C21.1247 13 23.4574 10.0913 23.4574 6.5C23.4574 2.90875 21.1247 0 18.2447 0C17.6322 0 17.0588 0.1625 16.5114 0.39C17.6329 2.11935 18.2446 4.27603 18.2446 6.5C18.2446 8.72397 17.6329 10.8806 16.5114 12.61C17.0588 12.8375 17.6322 13 18.2447 13ZM10.4255 14.625C6.94601 14.625 0 16.8025 0 21.125V26H20.8511V21.125C20.8511 16.8025 13.9051 14.625 10.4255 14.625Z" fill="black"/>
</svg>
