<svg width="20" height="15" viewBox="0 0 20 15" fill="none" xmlns="http://www.w3.org/2000/svg">
<path fill-rule="evenodd" clip-rule="evenodd" d="M10 0C12.4381 0 14.7695 1.28568 16.9422 3.39807C17.6835 4.11872 18.3541 4.88809 18.9444 5.65779C19.3006 6.12224 19.5535 6.48761 19.692 6.70528L20 7.18949L19.692 7.6737C19.5535 7.89137 19.3006 8.25673 18.9444 8.72119C18.3541 9.49088 17.6835 10.2603 16.9422 10.9809C14.7695 13.0933 12.4381 14.379 10 14.379C7.56188 14.379 5.23049 13.0933 3.05778 10.9809C2.31655 10.2603 1.64596 9.49088 1.05564 8.72119C0.699419 8.25673 0.446507 7.89137 0.308035 7.6737L0 7.18949L0.308035 6.70528C0.446507 6.48761 0.699419 6.12224 1.05564 5.65779C1.64596 4.88809 2.31655 4.11872 3.05778 3.39807C5.23049 1.28568 7.56188 0 10 0ZM17.5286 6.75531C16.9881 6.0506 16.3736 5.34557 15.6994 4.69011C13.8281 2.87074 11.8817 1.79737 10 1.79737C8.1183 1.79737 6.17191 2.87074 4.30059 4.69011C3.62641 5.34557 3.0119 6.0506 2.47142 6.75531C2.35469 6.90751 2.24682 7.05273 2.1482 7.18949C2.24682 7.32625 2.35469 7.47146 2.47142 7.62366C3.0119 8.32838 3.62641 9.03341 4.30059 9.68887C6.17191 11.5082 8.1183 12.5816 10 12.5816C11.8817 12.5816 13.8281 11.5082 15.6994 9.68887C16.3736 9.03341 16.9881 8.32838 17.5286 7.62366C17.6453 7.47146 17.7532 7.32625 17.8518 7.18949C17.7532 7.05273 17.6453 6.90751 17.5286 6.75531ZM10 10.7842C8.02528 10.7842 6.42444 9.17481 6.42444 7.18949C6.42444 5.20416 8.02528 3.59474 10 3.59474C11.9747 3.59474 13.5756 5.20416 13.5756 7.18949C13.5756 9.17481 11.9747 10.7842 10 10.7842ZM10 8.98686C10.9874 8.98686 11.7878 8.18215 11.7878 7.18949C11.7878 6.19683 10.9874 5.39212 10 5.39212C9.01264 5.39212 8.21223 6.19683 8.21223 7.18949C8.21223 8.18215 9.01264 8.98686 10 8.98686Z" fill="#FFDE59"/>
</svg>
